<svg height="100%" width="100%" id="svg" viewBox="0 0 1440 600" xmlns="http://www.w3.org/2000/svg" class="transition duration-300 ease-in-out delay-150"><defs><linearGradient id="gradient"><stop offset="5%" stop-color="#0693e344"></stop><stop offset="95%" stop-color="#9900ef44"></stop></linearGradient></defs><path d="M 0,600 C 0,600 0,120 0,120 C 94.94358974358971,136.46923076923076 189.88717948717942,152.93846153846152 258,157 C 326.1128205128206,161.06153846153848 367.39487179487185,152.71538461538464 452,141 C 536.6051282051282,129.28461538461536 664.5333333333332,114.19999999999999 761,100 C 857.4666666666668,85.80000000000001 922.471794871795,72.48461538461538 990,78 C 1057.528205128205,83.51538461538462 1127.5794871794872,107.86153846153846 1203,118 C 1278.4205128205128,128.13846153846154 1359.2102564102565,124.06923076923077 1440,120 C 1440,120 1440,600 1440,600 Z" stroke="none" stroke-width="0" fill="url(#gradient)" class="transition-all duration-300 ease-in-out delay-150"></path><defs><linearGradient id="gradient"><stop offset="5%" stop-color="#0693e366"></stop><stop offset="95%" stop-color="#9900ef66"></stop></linearGradient></defs><path d="M 0,600 C 0,600 0,240 0,240 C 100.11282051282049,242.58205128205128 200.22564102564098,245.1641025641026 273,239 C 345.774358974359,232.8358974358974 391.2102564102564,217.925641025641 461,222 C 530.7897435897436,226.074358974359 624.9333333333334,249.1333333333333 704,241 C 783.0666666666666,232.8666666666667 847.0564102564103,193.54102564102567 927,195 C 1006.9435897435897,196.45897435897433 1102.8410256410257,238.7025641025641 1191,253 C 1279.1589743589743,267.2974358974359 1359.5794871794872,253.64871794871794 1440,240 C 1440,240 1440,600 1440,600 Z" stroke="none" stroke-width="0" fill="url(#gradient)" class="transition-all duration-300 ease-in-out delay-150"></path><defs><linearGradient id="gradient"><stop offset="5%" stop-color="#0693e388"></stop><stop offset="95%" stop-color="#9900ef88"></stop></linearGradient></defs><path d="M 0,600 C 0,600 0,360 0,360 C 57.32307692307691,363.79999999999995 114.64615384615382,367.59999999999997 205,371 C 295.3538461538462,374.40000000000003 418.7384615384616,377.40000000000003 518,367 C 617.2615384615384,356.59999999999997 692.4,332.8 751,329 C 809.6,325.2 851.6615384615385,341.40000000000003 922,353 C 992.3384615384615,364.59999999999997 1090.9538461538461,371.59999999999997 1182,372 C 1273.0461538461539,372.40000000000003 1356.523076923077,366.20000000000005 1440,360 C 1440,360 1440,600 1440,600 Z" stroke="none" stroke-width="0" fill="url(#gradient)" class="transition-all duration-300 ease-in-out delay-150"></path><defs><linearGradient id="gradient"><stop offset="5%" stop-color="#0693e3ff"></stop><stop offset="95%" stop-color="#9900efff"></stop></linearGradient></defs><path d="M 0,600 C 0,600 0,480 0,480 C 85.09230769230771,484.58717948717947 170.18461538461543,489.174358974359 244,488 C 317.8153846153846,486.825641025641 380.3538461538461,479.88974358974366 468,472 C 555.6461538461539,464.11025641025634 668.4,455.26666666666665 762,446 C 855.6,436.73333333333335 930.0461538461539,427.0435897435898 993,444 C 1055.9538461538461,460.9564102564102 1107.4153846153847,504.5589743589744 1180,515 C 1252.5846153846153,525.4410256410256 1346.2923076923075,502.7205128205128 1440,480 C 1440,480 1440,600 1440,600 Z" stroke="none" stroke-width="0" fill="url(#gradient)" class="transition-all duration-300 ease-in-out delay-150"></path></svg>
