<svg id="visual" viewBox="0 0 1920 1080" width="1920" height="1080"
  xmlns="http://www.w3.org/2000/svg"
  xmlns:xlink="http://www.w3.org/1999/xlink" version="1.1">
  <rect x="0" y="0" width="1920" height="1080" fill="#f3f3f300"></rect>
  <path d="M0 345L45.7 336.8C91.3 328.7 182.7 312.3 274.2 323.3C365.7 334.3 457.3 372.7 548.8 360.8C640.3 349 731.7 287 823 268.3C914.3 249.7 1005.7 274.3 1097 267.2C1188.3 260 1279.7 221 1371.2 218C1462.7 215 1554.3 248 1645.8 274C1737.3 300 1828.7 319 1874.3 328.5L1920 338L1920 1081L1874.3 1081C1828.7 1081 1737.3 1081 1645.8 1081C1554.3 1081 1462.7 1081 1371.2 1081C1279.7 1081 1188.3 1081 1097 1081C1005.7 1081 914.3 1081 823 1081C731.7 1081 640.3 1081 548.8 1081C457.3 1081 365.7 1081 274.2 1081C182.7 1081 91.3 1081 45.7 1081L0 1081Z" fill="#f3f3f3"></path>
  <path d="M0 386L45.7 396.3C91.3 406.7 182.7 427.3 274.2 445.3C365.7 463.3 457.3 478.7 548.8 460.7C640.3 442.7 731.7 391.3 823 409.2C914.3 427 1005.7 514 1097 559.2C1188.3 604.3 1279.7 607.7 1371.2 579.5C1462.7 551.3 1554.3 491.7 1645.8 481.3C1737.3 471 1828.7 510 1874.3 529.5L1920 549L1920 1081L1874.3 1081C1828.7 1081 1737.3 1081 1645.8 1081C1554.3 1081 1462.7 1081 1371.2 1081C1279.7 1081 1188.3 1081 1097 1081C1005.7 1081 914.3 1081 823 1081C731.7 1081 640.3 1081 548.8 1081C457.3 1081 365.7 1081 274.2 1081C182.7 1081 91.3 1081 45.7 1081L0 1081Z" fill="#cfcdf8"></path>
  <path d="M0 687L45.7 681.5C91.3 676 182.7 665 274.2 677.7C365.7 690.3 457.3 726.7 548.8 721.3C640.3 716 731.7 669 823 632.8C914.3 596.7 1005.7 571.3 1097 559.8C1188.3 548.3 1279.7 550.7 1371.2 570.8C1462.7 591 1554.3 629 1645.8 632.2C1737.3 635.3 1828.7 603.7 1874.3 587.8L1920 572L1920 1081L1874.3 1081C1828.7 1081 1737.3 1081 1645.8 1081C1554.3 1081 1462.7 1081 1371.2 1081C1279.7 1081 1188.3 1081 1097 1081C1005.7 1081 914.3 1081 823 1081C731.7 1081 640.3 1081 548.8 1081C457.3 1081 365.7 1081 274.2 1081C182.7 1081 91.3 1081 45.7 1081L0 1081Z" fill="#a6a9fb"></path>
  <path d="M0 746L45.7 766C91.3 786 182.7 826 274.2 825.7C365.7 825.3 457.3 784.7 548.8 782.3C640.3 780 731.7 816 823 826.3C914.3 836.7 1005.7 821.3 1097 797C1188.3 772.7 1279.7 739.3 1371.2 739.2C1462.7 739 1554.3 772 1645.8 772C1737.3 772 1828.7 739 1874.3 722.5L1920 706L1920 1081L1874.3 1081C1828.7 1081 1737.3 1081 1645.8 1081C1554.3 1081 1462.7 1081 1371.2 1081C1279.7 1081 1188.3 1081 1097 1081C1005.7 1081 914.3 1081 823 1081C731.7 1081 640.3 1081 548.8 1081C457.3 1081 365.7 1081 274.2 1081C182.7 1081 91.3 1081 45.7 1081L0 1081Z" fill="#7486fd"></path>
  <path d="M0 893L45.7 899.8C91.3 906.7 182.7 920.3 274.2 915.8C365.7 911.3 457.3 888.7 548.8 872.8C640.3 857 731.7 848 823 841C914.3 834 1005.7 829 1097 849.3C1188.3 869.7 1279.7 915.3 1371.2 934.5C1462.7 953.7 1554.3 946.3 1645.8 934C1737.3 921.7 1828.7 904.3 1874.3 895.7L1920 887L1920 1081L1874.3 1081C1828.7 1081 1737.3 1081 1645.8 1081C1554.3 1081 1462.7 1081 1371.2 1081C1279.7 1081 1188.3 1081 1097 1081C1005.7 1081 914.3 1081 823 1081C731.7 1081 640.3 1081 548.8 1081C457.3 1081 365.7 1081 274.2 1081C182.7 1081 91.3 1081 45.7 1081L0 1081Z" fill="#0066ff"></path>
</svg>