<svg xmlns="http://www.w3.org/2000/svg" xmlns:xlink="http://www.w3.org/1999/xlink" xmlns:fi="http://pattern.flaticon.com/" x="0" y="0" width="700" height="350" viewBox="0 0 700 350"><rect x="0px" y="0px" width="100%" height="100%" opacity="1" fill="#ffffff"/><defs><path d="M165,0C74.019,0,0,74.019,0,165s74.019,165,165,165c90.982,0,165-74.019,165-165S255.982,0,165,0z" transform="matrix(0.03030303120613098 0 0 0.03030303120613098 345 82.5)" id="L1_41" fill="#271c05"/><g transform="matrix(0.078125 0 0 0.078125 242.5 67.5)" id="L1_39"><path d="m512 256c0 68.378906-26.628906 132.671875-74.980469 181.019531-48.347656 48.351563-112.640625 74.980469-181.019531 74.980469s-132.671875-26.628906-181.019531-74.980469c-48.351563-48.347656-74.980469-112.640625-74.980469-181.019531s26.628906-132.671875 74.980469-181.019531c48.347656-48.351563 112.640625-74.980469 181.019531-74.980469s132.671875 26.628906 181.019531 74.980469c48.351563 48.347656 74.980469 112.640625 74.980469 181.019531zm0 0" fill="#ffe171"/><path d="m512 256c0 68.378906-26.628906 132.671875-74.980469 181.019531-48.347656 48.351563-112.640625 74.980469-181.019531 74.980469v-512c68.378906 0 132.671875 26.628906 181.019531 74.980469 48.351563 48.347656 74.980469 112.640625 74.980469 181.019531zm0 0" fill="#ffd300"/><path d="m227.53125 174.527344h-30c0 14.152344-11.515625 25.667968-25.667969 25.667968-14.152343 0-25.667969-11.515624-25.667969-25.667968h-30c0 30.695312 24.972657 55.667968 55.667969 55.667968 30.695313 0 55.667969-24.972656 55.667969-55.667968zm0 0" fill="#b26d3c"/><path d="m395.804688 174.527344h-30c0 14.152344-11.515626 25.667968-25.667969 25.667968-14.152344 0-25.667969-11.515624-25.667969-25.667968h-30c0 30.695312 24.972656 55.667968 55.667969 55.667968 30.695312 0 55.667969-24.972656 55.667969-55.667968zm0 0" fill="#7a3d06"/><path d="m364.21875 382.699219-28.398438 9.671875c-11.628906-34.171875-43.699218-57.132813-79.820312-57.132813s-68.191406 22.960938-79.820312 57.132813l-28.398438-9.671875c15.757812-46.328125 59.25-77.460938 108.21875-77.460938s92.460938 31.132813 108.21875 77.460938zm0 0" fill="#b26d3c"/><path d="m364.21875 382.699219-28.398438 9.671875c-11.628906-34.171875-43.699218-57.132813-79.820312-57.132813v-30c48.96875 0 92.460938 31.132813 108.21875 77.460938zm0 0" fill="#7a3d06"/><path d="m433.628906 286.890625c-18.179687-22.058594-36.113281-38.925781-36.867187-39.632813l-10.257813-9.613281-10.257812 9.613281c-.753906.707032-18.6875 17.574219-36.867188 39.632813-26.222656 31.824219-38.972656 57.082031-38.972656 77.21875 0 47.472656 38.625 86.097656 86.097656 86.097656s86.097656-38.625 86.097656-86.097656c0-20.136719-12.75-45.394531-38.972656-77.21875zm0 0" fill="#169eff"/></g><path d="M165,0C74.019,0,0,74.019,0,165s74.019,165,165,165c90.982,0,165-74.019,165-165S255.982,0,165,0z" transform="matrix(0.03030303120613098 0 0 0.03030303120613098 82.5 257.5)" id="L1_42" fill="#558762"/><g transform="matrix(0.0390625 0 0 0.0390625 165 165)" id="L1_43"><path d="m512 256c0 68.378906-26.628906 132.671875-74.980469 181.019531-48.347656 48.351563-112.640625 74.980469-181.019531 74.980469s-132.671875-26.628906-181.019531-74.980469c-48.351563-48.347656-74.980469-112.640625-74.980469-181.019531s26.628906-132.671875 74.980469-181.019531c48.347656-48.351563 112.640625-74.980469 181.019531-74.980469s132.671875 26.628906 181.019531 74.980469c48.351563 48.347656 74.980469 112.640625 74.980469 181.019531zm0 0" fill="#ffe171"/><path d="m512 256c0 68.378906-26.628906 132.671875-74.980469 181.019531-48.347656 48.351563-112.640625 74.980469-181.019531 74.980469v-512c68.378906 0 132.671875 26.628906 181.019531 74.980469 48.351563 48.347656 74.980469 112.640625 74.980469 181.019531zm0 0" fill="#ffd300"/><path d="m227.53125 222.695312h-30c0-14.152343-11.515625-25.667968-25.667969-25.667968-14.152343 0-25.667969 11.515625-25.667969 25.667968h-30c0-30.695312 24.972657-55.667968 55.667969-55.667968 30.695313 0 55.667969 24.972656 55.667969 55.667968zm0 0" fill="#b26d3c"/><path d="m405.710938 280.46875v15c0 82.550781-67.160157 149.710938-149.710938 149.710938s-149.710938-67.160157-149.710938-149.710938v-15zm0 0" fill="#b26d3c"/><path d="m405.710938 280.46875v15c0 82.550781-67.160157 149.710938-149.710938 149.710938v-164.710938zm0 0" fill="#7a3d06"/><path d="m333.148438 340.671875v94.179687c0 42.539063-34.609376 77.148438-77.148438 77.148438s-77.148438-34.609375-77.148438-77.148438v-94.179687zm0 0" fill="#f95858"/><path d="m333.148438 340.671875v94.179687c0 42.539063-34.609376 77.148438-77.148438 77.148438v-171.328125zm0 0" fill="#ea1b5f"/><path d="m241 340.671875h30v70.828125h-30zm0 0" fill="#d83535"/><path d="m256 340.671875h15v70.828125h-15zm0 0" fill="#b70641"/><path d="m357.015625 154.332031c-24.132813 0-43.761719 19.632813-43.761719 43.765625 0 24.132813 19.632813 43.761719 43.761719 43.761719 24.132813 0 43.765625-19.632813 43.765625-43.761719 0-24.132812-19.632812-43.765625-43.765625-43.765625zm0 0" fill="#7a3d06"/></g><g transform="matrix(0.0390625 0 0 0.0390625 340 165)" id="L1_44"><path d="m458.519531 282.738281c0 61.238281-23.847656 118.8125-67.148437 162.113281-43.300782 43.300782-100.875 67.148438-162.109375 67.148438-61.238281 0-118.8125-23.847656-162.113281-67.148438-43.300782-43.300781-67.148438-100.875-67.148438-162.113281 0-61.234375 23.847656-118.808593 67.148438-162.109375 43.300781-43.300781 100.875-67.148437 162.113281-67.148437 61.234375 0 118.808593 23.847656 162.109375 67.148437 43.300781 43.300782 67.148437 100.875 67.148437 162.109375zm0 0" fill="#ffe171"/><path d="m458.519531 282.738281c0 61.238281-23.847656 118.8125-67.148437 162.113281-43.300782 43.300782-100.875 67.148438-162.109375 67.148438v-458.519531c61.234375 0 118.808593 23.847656 162.109375 67.148437 43.300781 43.300782 67.148437 100.875 67.148437 162.109375zm0 0" fill="#ffd300"/><path d="m336.5 364.238281c-21.660156 38.910157-62.75 63.082031-107.238281 63.082031-44.492188 0-85.582031-24.171874-107.242188-63.082031l26.210938-14.597656c16.371093 29.410156 47.417969 47.679687 81.03125 47.679687 33.609375 0 64.660156-18.269531 81.027343-47.679687zm0 0" fill="#b26d3c"/><path d="m204.238281 281.746094h-30c0-12.371094-10.066406-22.4375-22.4375-22.4375-12.375 0-22.441406 10.066406-22.441406 22.4375h-30c0-28.914063 23.523437-52.4375 52.441406-52.4375 28.914063 0 52.4375 23.523437 52.4375 52.4375zm0 0" fill="#b26d3c"/><path d="m359.160156 281.746094h-30c0-12.371094-10.066406-22.4375-22.4375-22.4375-12.375 0-22.441406 10.066406-22.441406 22.4375h-30c0-28.914063 23.523438-52.4375 52.441406-52.4375 28.914063 0 52.4375 23.523437 52.4375 52.4375zm0 0" fill="#7a3d06"/><path d="m356.171875 20.730469c-34.140625-13.371094-79.210937-20.730469-126.910156-20.730469-47.703125 0-92.773438 7.359375-126.910157 20.730469-38.582031 15.097656-59.832031 36.949219-59.832031 61.507812 0 24.5625 21.25 46.402344 59.832031 61.511719 34.136719 13.371094 79.207032 20.730469 126.910157 20.730469 47.699219 0 92.769531-7.359375 126.910156-20.730469 38.578125-15.109375 59.828125-36.949219 59.828125-61.511719 0-24.558593-21.25-46.410156-59.828125-61.507812zm-10.941406 95.089843c-30.742188 12.03125-71.921875 18.660157-115.96875 18.660157-44.050781 0-85.230469-6.628907-115.972657-18.660157-25.148437-9.851562-40.769531-22.71875-40.769531-33.582031 0-10.867187 15.621094-23.726562 40.769531-33.578125 30.742188-12.03125 71.921876-18.660156 115.972657-18.660156 44.046875 0 85.226562 6.628906 115.96875 18.660156 25.148437 9.851563 40.769531 22.710938 40.769531 33.578125 0 10.863281-15.621094 23.730469-40.769531 33.582031zm0 0" fill="#4cc4ff"/><path d="m310.289062 349.640625 26.210938 14.597656c-21.660156 38.910157-62.75 63.082031-107.238281 63.082031v-30c33.609375 0 64.660156-18.269531 81.027343-47.679687zm0 0" fill="#7a3d06"/><path d="m416 82.238281c0 24.5625-21.25 46.402344-59.828125 61.511719-34.140625 13.371094-79.210937 20.730469-126.910156 20.730469v-30c44.046875 0 85.226562-6.628907 115.96875-18.660157 25.148437-9.851562 40.769531-22.71875 40.769531-33.582031 0-10.867187-15.621094-23.726562-40.769531-33.578125-30.742188-12.03125-71.921875-18.660156-115.96875-18.660156v-30c47.699219 0 92.769531 7.359375 126.910156 20.730469 38.578125 15.097656 59.828125 36.949219 59.828125 61.507812zm0 0" fill="#169eff"/></g><g transform="matrix(-0.1171875 0 0 0.1171875 198.73275755371094 232.5)" id="L1_45"><path d="m458.519531 282.738281c0 61.238281-23.847656 118.8125-67.148437 162.113281-43.300782 43.300782-100.875 67.148438-162.109375 67.148438-61.238281 0-118.8125-23.847656-162.113281-67.148438-43.300782-43.300781-67.148438-100.875-67.148438-162.113281 0-61.234375 23.847656-118.808593 67.148438-162.109375 43.300781-43.300781 100.875-67.148437 162.113281-67.148437 61.234375 0 118.808593 23.847656 162.109375 67.148437 43.300781 43.300782 67.148437 100.875 67.148437 162.109375zm0 0" fill="#ffe171"/><path d="m458.519531 282.738281c0 61.238281-23.847656 118.8125-67.148437 162.113281-43.300782 43.300782-100.875 67.148438-162.109375 67.148438v-458.519531c61.234375 0 118.808593 23.847656 162.109375 67.148437 43.300781 43.300782 67.148437 100.875 67.148437 162.109375zm0 0" fill="#ffd300"/><path d="m336.5 364.238281c-21.660156 38.910157-62.75 63.082031-107.238281 63.082031-44.492188 0-85.582031-24.171874-107.242188-63.082031l26.210938-14.597656c16.371093 29.410156 47.417969 47.679687 81.03125 47.679687 33.609375 0 64.660156-18.269531 81.027343-47.679687zm0 0" fill="#b26d3c"/><path d="m204.238281 281.746094h-30c0-12.371094-10.066406-22.4375-22.4375-22.4375-12.375 0-22.441406 10.066406-22.441406 22.4375h-30c0-28.914063 23.523437-52.4375 52.441406-52.4375 28.914063 0 52.4375 23.523437 52.4375 52.4375zm0 0" fill="#b26d3c"/><path d="m359.160156 281.746094h-30c0-12.371094-10.066406-22.4375-22.4375-22.4375-12.375 0-22.441406 10.066406-22.441406 22.4375h-30c0-28.914063 23.523438-52.4375 52.441406-52.4375 28.914063 0 52.4375 23.523437 52.4375 52.4375zm0 0" fill="#7a3d06"/><path d="m356.171875 20.730469c-34.140625-13.371094-79.210937-20.730469-126.910156-20.730469-47.703125 0-92.773438 7.359375-126.910157 20.730469-38.582031 15.097656-59.832031 36.949219-59.832031 61.507812 0 24.5625 21.25 46.402344 59.832031 61.511719 34.136719 13.371094 79.207032 20.730469 126.910157 20.730469 47.699219 0 92.769531-7.359375 126.910156-20.730469 38.578125-15.109375 59.828125-36.949219 59.828125-61.511719 0-24.558593-21.25-46.410156-59.828125-61.507812zm-10.941406 95.089843c-30.742188 12.03125-71.921875 18.660157-115.96875 18.660157-44.050781 0-85.230469-6.628907-115.972657-18.660157-25.148437-9.851562-40.769531-22.71875-40.769531-33.582031 0-10.867187 15.621094-23.726562 40.769531-33.578125 30.742188-12.03125 71.921876-18.660156 115.972657-18.660156 44.046875 0 85.226562 6.628906 115.96875 18.660156 25.148437 9.851563 40.769531 22.710938 40.769531 33.578125 0 10.863281-15.621094 23.730469-40.769531 33.582031zm0 0" fill="#4cc4ff"/><path d="m310.289062 349.640625 26.210938 14.597656c-21.660156 38.910157-62.75 63.082031-107.238281 63.082031v-30c33.609375 0 64.660156-18.269531 81.027343-47.679687zm0 0" fill="#7a3d06"/><path d="m416 82.238281c0 24.5625-21.25 46.402344-59.828125 61.511719-34.140625 13.371094-79.210937 20.730469-126.910156 20.730469v-30c44.046875 0 85.226562-6.628907 115.96875-18.660157 25.148437-9.851562 40.769531-22.71875 40.769531-33.582031 0-10.867187-15.621094-23.726562-40.769531-33.578125-30.742188-12.03125-71.921875-18.660156-115.96875-18.660156v-30c47.699219 0 92.769531 7.359375 126.910156 20.730469 38.578125 15.097656 59.828125 36.949219 59.828125 61.507812zm0 0" fill="#169eff"/></g><g transform="matrix(0.1519174724817276 0 0 0.1519174724817276 271.10912704467773 288.10912704467773)" id="L1_46"><path d="m512 256c0 68.378906-26.628906 132.671875-74.980469 181.019531-48.347656 48.351563-112.640625 74.980469-181.019531 74.980469s-132.671875-26.628906-181.019531-74.980469c-48.351563-48.347656-74.980469-112.640625-74.980469-181.019531s26.628906-132.671875 74.980469-181.019531c48.347656-48.351563 112.640625-74.980469 181.019531-74.980469s132.671875 26.628906 181.019531 74.980469c48.351563 48.347656 74.980469 112.640625 74.980469 181.019531zm0 0" fill="#ffe171"/><path d="m512 256c0 68.378906-26.628906 132.671875-74.980469 181.019531-48.347656 48.351563-112.640625 74.980469-181.019531 74.980469v-512c68.378906 0 132.671875 26.628906 181.019531 74.980469 48.351563 48.347656 74.980469 112.640625 74.980469 181.019531zm0 0" fill="#ffd300"/><path d="m209.546875 186.589844c-3.792969-3.261719-8.417969-5.988282-13.871094-8.183594-5.457031-2.195312-11.574219-4.222656-18.359375-6.085938-4.925781-1.332031-9.25-2.527343-12.972656-3.59375-3.726562-1.0625-6.820312-2.226562-9.28125-3.492187-2.464844-1.261719-4.324219-2.695313-5.585938-4.292969-1.269531-1.59375-1.898437-3.589844-1.898437-5.984375 0-7.851562 5.855469-11.773437 17.5625-11.773437 4.257813 0 8.515625.597656 12.773437 1.792968 4.257813 1.199219 8.183594 2.597657 11.773438 4.191407 3.59375 1.597656 6.585938 3.128906 8.980469 4.589843 2.394531 1.464844 3.792969 2.464844 4.191406 2.996094l14.367187-27.144531c-3.191406-1.859375-6.683593-3.722656-10.476562-5.585937-3.792969-1.863282-7.882812-3.523438-12.273438-4.988282-4.390624-1.464844-8.980468-2.660156-13.769531-3.59375-.066406-.011718-.132812-.019531-.195312-.03125v-25.570312h-30v25.984375c-1.496094.351562-2.972657.753906-4.429688 1.214843-6.320312 1.996094-11.875 4.957032-16.667969 8.878907-4.785156 3.925781-8.578124 8.75-11.375 14.46875-2.792968 5.722656-4.1875 12.308593-4.1875 19.757812 0 5.324219.761719 9.980469 2.292969 13.96875 1.527344 3.992188 3.859375 7.519531 6.984375 10.578125 3.125 3.0625 7.085938 5.757813 11.875 8.082032 4.789063 2.332031 10.441406 4.492187 16.964844 6.488281 4.921875 1.464843 9.476562 2.792969 13.671875 3.992187 4.191406 1.195313 7.8125 2.492188 10.875 3.890625 3.058594 1.398438 5.453125 2.960938 7.183594 4.691407 1.730469 1.730468 2.597656 3.925781 2.597656 6.585937 0 7.050781-5.789063 10.574219-17.363281 10.574219-5.457032 0-10.847656-.726563-16.164063-2.191406-5.324219-1.464844-10.148437-3.125-14.46875-4.992188-4.328125-1.859375-7.953125-3.722656-10.878906-5.585938-2.929687-1.863281-4.660156-3.125-5.1875-3.792968l-14.371094 28.539062c4.125 2.792969 8.613281 5.257813 13.472657 7.382813 4.855468 2.132812 9.878906 3.960937 15.066406 5.488281 4.597656 1.355469 9.304687 2.410156 14.109375 3.1875v26.867188h30v-26.21875c2.558593-.367188 5.085937-.84375 7.582031-1.441407 6.382812-1.527343 12.039062-3.992187 16.960938-7.382812 4.921874-3.394531 8.882812-7.847657 11.875-13.371094 2.992187-5.519531 4.492187-12.273437 4.492187-20.257813 0-6.515624-1.035156-12.105468-3.097656-16.761718s-4.988281-8.613282-8.777344-11.875zm0 0" fill="#8cdc53"/><path d="m399.050781 198.464844c-2.0625-4.65625-4.988281-8.613282-8.78125-11.875-3.792969-3.261719-8.414062-5.988282-13.871093-8.183594-5.457032-2.195312-11.574219-4.222656-18.359376-6.085938-4.921874-1.332031-9.25-2.527343-12.972656-3.59375-3.726562-1.0625-6.820312-2.226562-9.277344-3.492187-2.464843-1.261719-4.324218-2.695313-5.589843-4.292969-1.265625-1.59375-1.894531-3.589844-1.894531-5.984375 0-7.851562 5.851562-11.773437 17.5625-11.773437 4.257812 0 8.511718.597656 12.773437 1.792968 4.253906 1.199219 8.179687 2.597657 11.773437 4.191407 3.59375 1.597656 6.585938 3.128906 8.980469 4.589843 2.394531 1.464844 3.792969 2.464844 4.191407 2.996094l14.367187-27.144531c-3.191406-1.859375-6.6875-3.722656-10.476563-5.585937-3.792968-1.863282-7.882812-3.523438-12.273437-4.988282s-8.980469-2.660156-13.773437-3.59375c-.0625-.011718-.128907-.019531-.191407-.03125v-25.570312h-30v25.984375c-1.496093.351562-2.976562.753906-4.433593 1.214843-6.320313 1.996094-11.875 4.957032-16.664063 8.878907-4.789063 3.925781-8.582031 8.75-11.375 14.46875-2.792969 5.722656-4.191406 12.308593-4.191406 19.757812 0 5.324219.765625 9.980469 2.296875 13.96875 1.527344 3.992188 3.855468 7.519531 6.984375 10.578125 3.125 3.0625 7.085937 5.757813 11.875 8.082032 4.789062 2.332031 10.441406 4.492187 16.960937 6.488281 4.921875 1.464843 9.480469 2.792969 13.671875 3.992187 4.191407 1.195313 7.816407 2.492188 10.878907 3.890625 3.058593 1.398438 5.453124 2.960938 7.183593 4.691407 1.726563 1.730468 2.59375 3.925781 2.59375 6.585937 0 7.050781-5.785156 10.574219-17.363281 10.574219-5.457031 0-10.84375-.726563-16.164062-2.191406-5.320313-1.464844-10.144532-3.125-14.46875-4.992188-4.324219-1.859375-7.953126-3.722656-10.875-5.585938-2.929688-1.863281-4.660157-3.125-5.191407-3.792968l-14.367187 28.539062c4.121094 2.792969 8.613281 5.257813 13.472656 7.382813 4.851562 2.132812 9.878906 3.960937 15.066406 5.488281 4.597656 1.355469 9.300782 2.410156 14.109375 3.1875v26.867188h30v-26.21875c2.554688-.367188 5.082031-.84375 7.578125-1.441407 6.386719-1.527343 12.039063-3.992187 16.964844-7.382812 4.917969-3.394531 8.878906-7.847657 11.875-13.371094 2.992188-5.519531 4.488281-12.273437 4.488281-20.257813 0-6.515624-1.03125-12.105468-3.09375-16.761718zm0 0" fill="#5dc379"/><path d="m405.710938 280.46875v15c0 46.929688-21.710938 88.890625-55.609376 116.359375-25.730468 20.851563-58.480468-44.367187-94.101562-44.367187-35.5 0-68.148438 65.300781-93.839844 44.578124-34.050781-27.46875-55.871094-69.519531-55.871094-116.570312v-15zm0 0" fill="#b26d3c"/><path d="m405.710938 280.46875v15c0 46.929688-21.710938 88.890625-55.609376 116.359375-25.730468 20.851563-58.480468-44.367187-94.101562-44.367187v-86.992188zm0 0" fill="#7a3d06"/><path d="m350.101562 411.828125c-25.730468 20.851563-58.480468 33.351563-94.101562 33.351563-35.5 0-68.148438-12.417969-93.839844-33.140626 2.808594-7.089843 7.378906-16.449218 14.5-25.898437 13.167969-17.480469 37.628906-38.3125 79.339844-38.3125 41.648438 0 66.101562 20.511719 79.269531 37.722656 7.378907 9.640625 12.03125 19.1875 14.832031 26.277344zm0 0" fill="#f95858"/><path d="m350.101562 411.828125c-25.730468 20.851563-58.480468 33.351563-94.101562 33.351563v-97.351563c41.648438 0 66.101562 20.511719 79.269531 37.722656 7.378907 9.640625 12.03125 19.1875 14.832031 26.277344zm0 0" fill="#ea1b5f"/></g><g transform="matrix(0.1171875 0 0 0.1171875 91 55)" id="L1_47"><path d="m512 256c0 68.378906-26.628906 132.671875-74.980469 181.019531-48.347656 48.351563-112.640625 74.980469-181.019531 74.980469s-132.671875-26.628906-181.019531-74.980469c-48.351563-48.347656-74.980469-112.640625-74.980469-181.019531s26.628906-132.671875 74.980469-181.019531c48.347656-48.351563 112.640625-74.980469 181.019531-74.980469s132.671875 26.628906 181.019531 74.980469c48.351563 48.347656 74.980469 112.640625 74.980469 181.019531zm0 0" fill="#ffe171"/><path d="m512 256c0 68.378906-26.628906 132.671875-74.980469 181.019531-48.347656 48.351563-112.640625 74.980469-181.019531 74.980469v-512c68.378906 0 132.671875 26.628906 181.019531 74.980469 48.351563 48.347656 74.980469 112.640625 74.980469 181.019531zm0 0" fill="#ffd300"/><path d="m241.742188 135.65625c-3.664063-27.859375-29.328126-47.550781-57.171876-43.882812-10.515624 1.382812-20.21875 6.011718-27.851562 13.027343-9.191406-4.804687-19.761719-6.769531-30.273438-5.386719-13.496093 1.773438-25.496093 8.699219-33.785156 19.496094-8.285156 10.800782-11.875 24.179688-10.101562 37.675782 1.652344 12.550781 7.867187 23.976562 17.5 32.164062l76.230468 64.9375 56.855469-82.421875c7.195313-10.410156 10.246094-23.054687 8.597657-35.609375zm0 0" fill="#f95858"/><path d="m383.101562 99.414062c-10.519531-1.382812-21.085937.585938-30.273437 5.386719-7.632813-7.015625-17.335937-11.644531-27.851563-13.027343-27.851562-3.664063-53.507812 16.023437-57.171874 43.882812-1.648438 12.550781 1.402343 25.199219 8.589843 35.597656l56.859375 82.433594 76.226563-64.925781c9.636719-8.199219 15.855469-19.625 17.507812-32.175781 3.660157-27.863282-16.027343-53.507813-43.886719-57.171876zm0 0" fill="#ea1b5f"/><path d="m405.710938 280.46875v15c0 46.929688-21.710938 88.890625-55.609376 116.359375-25.730468 20.851563-94.101562-49.003906-94.101562-49.003906s-68.148438 69.9375-93.839844 49.214843c-34.050781-27.46875-55.871094-69.519531-55.871094-116.570312v-15zm0 0" fill="#b26d3c"/><path d="m405.710938 280.46875v15c0 46.929688-21.710938 88.890625-55.609376 116.359375-25.730468 20.851563-94.101562-49.003906-94.101562-49.003906v-82.355469zm0 0" fill="#7a3d06"/><path d="m350.101562 411.828125c-25.730468 20.851563-58.480468 33.351563-94.101562 33.351563-35.5 0-68.148438-12.417969-93.839844-33.140626 2.808594-7.089843 7.378906-16.449218 14.5-25.898437 13.167969-17.480469 37.628906-38.3125 79.339844-38.3125 41.648438 0 66.101562 20.511719 79.269531 37.722656 7.378907 9.640625 12.03125 19.1875 14.832031 26.277344zm0 0" fill="#f95858"/><path d="m350.101562 411.828125c-25.730468 20.851563-58.480468 33.351563-94.101562 33.351563v-97.351563c41.648438 0 66.101562 20.511719 79.269531 37.722656 7.378907 9.640625 12.03125 19.1875 14.832031 26.277344zm0 0" fill="#ea1b5f"/></g><g transform="matrix(0.06927401572465897 0 0 0.06927401572465897 252.2658519744873 183.2658519744873)" id="L1_48"><path d="m512 256c0 68.378906-26.628906 132.671875-74.980469 181.019531-48.347656 48.351563-112.640625 74.980469-181.019531 74.980469s-132.671875-26.628906-181.019531-74.980469c-48.351563-48.347656-74.980469-112.640625-74.980469-181.019531s26.628906-132.671875 74.980469-181.019531c48.347656-48.351563 112.640625-74.980469 181.019531-74.980469s132.671875 26.628906 181.019531 74.980469c48.351563 48.347656 74.980469 112.640625 74.980469 181.019531zm0 0" fill="#ffe171"/><path d="m512 256c0 68.378906-26.628906 132.671875-74.980469 181.019531-48.347656 48.351563-112.640625 74.980469-181.019531 74.980469v-512c68.378906 0 132.671875 26.628906 181.019531 74.980469 48.351563 48.347656 74.980469 112.640625 74.980469 181.019531zm0 0" fill="#ffd300"/><path d="m203.066406 179.171875 46.523438-45.351563-.40625-1.25-64.292969-9.339843-28.738281-58.230469h-1.34375l-28.738282 58.230469-64.292968 9.339843-.40625 1.25 46.523437 45.351563-10.992187 64.082031 1.027344.746094 57.550781-30.257812 57.550781 30.257812 1.027344-.746094zm0 0" fill="#4cc4ff"/><path d="m404.105469 179.171875 46.523437-45.351563-.40625-1.25-64.292968-9.339843-28.738282-58.230469h-1.34375l-28.738281 58.230469-64.292969 9.339843-.40625 1.25 46.523438 45.351563-10.992188 64.082031 1.027344.746094 57.550781-30.257812 57.550781 30.257812 1.027344-.746094zm0 0" fill="#169eff"/><path d="m356.519531 288.070312s51.164063 31.3125 46.65625 45.78125c-19.542969 62.695313-78.128906 108.335938-147.175781 108.335938-68.878906 0-127.339844-45.417969-147.023438-107.878906-4.601562-14.601563 46.503907-46.238282 46.503907-46.238282zm0 0" fill="#f95858"/><path d="m356.519531 288.070312s46.558594 46.085938 46.511719 46.242188c-19.6875 62.457031-78.15625 107.875-147.03125 107.875v-154.117188zm0 0" fill="#ea1b5f"/><path d="m410.113281 274v14.070312c0 16.109376-2.484375 31.632813-7.089843 46.238282h-294.046876c-4.605468-14.605469-7.089843-30.132813-7.089843-46.238282v-14.070312zm0 0" fill="#dcf3ff"/><path d="m410.113281 274v14.070312c0 16.109376-2.484375 31.632813-7.089843 46.238282h-147.023438v-60.308594zm0 0" fill="#b0e2fa"/></g></defs><g fi:class="KUsePattern"><pattern id="pattern_L1_41" width="350" height="350" patternUnits="userSpaceOnUse"><use xlink:href="#L1_41" x="-350" y="-350"/><use xlink:href="#L1_41" x="0" y="-350"/><use xlink:href="#L1_41" x="350" y="-350"/><use xlink:href="#L1_41" x="-350" y="0"/><use xlink:href="#L1_41" x="0" y="0"/><use xlink:href="#L1_41" x="350" y="0"/><use xlink:href="#L1_41" x="-350" y="350"/><use xlink:href="#L1_41" x="0" y="350"/><use xlink:href="#L1_41" x="350" y="350"/></pattern><rect x="0" y="0" width="100%" height="100%" fill="url(#pattern_L1_41)"/></g><g fi:class="KUsePattern"><pattern id="pattern_L1_39" width="350" height="350" patternUnits="userSpaceOnUse"><use xlink:href="#L1_39" x="-350" y="-350"/><use xlink:href="#L1_39" x="0" y="-350"/><use xlink:href="#L1_39" x="350" y="-350"/><use xlink:href="#L1_39" x="-350" y="0"/><use xlink:href="#L1_39" x="0" y="0"/><use xlink:href="#L1_39" x="350" y="0"/><use xlink:href="#L1_39" x="-350" y="350"/><use xlink:href="#L1_39" x="0" y="350"/><use xlink:href="#L1_39" x="350" y="350"/></pattern><rect x="0" y="0" width="100%" height="100%" fill="url(#pattern_L1_39)"/></g><g fi:class="KUsePattern"><pattern id="pattern_L1_42" width="350" height="350" patternUnits="userSpaceOnUse"><use xlink:href="#L1_42" x="-350" y="-350"/><use xlink:href="#L1_42" x="0" y="-350"/><use xlink:href="#L1_42" x="350" y="-350"/><use xlink:href="#L1_42" x="-350" y="0"/><use xlink:href="#L1_42" x="0" y="0"/><use xlink:href="#L1_42" x="350" y="0"/><use xlink:href="#L1_42" x="-350" y="350"/><use xlink:href="#L1_42" x="0" y="350"/><use xlink:href="#L1_42" x="350" y="350"/></pattern><rect x="0" y="0" width="100%" height="100%" fill="url(#pattern_L1_42)"/></g><g fi:class="KUsePattern"><pattern id="pattern_L1_43" width="350" height="350" patternUnits="userSpaceOnUse"><use xlink:href="#L1_43" x="-350" y="-350"/><use xlink:href="#L1_43" x="0" y="-350"/><use xlink:href="#L1_43" x="350" y="-350"/><use xlink:href="#L1_43" x="-350" y="0"/><use xlink:href="#L1_43" x="0" y="0"/><use xlink:href="#L1_43" x="350" y="0"/><use xlink:href="#L1_43" x="-350" y="350"/><use xlink:href="#L1_43" x="0" y="350"/><use xlink:href="#L1_43" x="350" y="350"/></pattern><rect x="0" y="0" width="100%" height="100%" fill="url(#pattern_L1_43)"/></g><g fi:class="KUsePattern"><pattern id="pattern_L1_44" width="350" height="350" patternUnits="userSpaceOnUse"><use xlink:href="#L1_44" x="-350" y="-350"/><use xlink:href="#L1_44" x="0" y="-350"/><use xlink:href="#L1_44" x="350" y="-350"/><use xlink:href="#L1_44" x="-350" y="0"/><use xlink:href="#L1_44" x="0" y="0"/><use xlink:href="#L1_44" x="350" y="0"/><use xlink:href="#L1_44" x="-350" y="350"/><use xlink:href="#L1_44" x="0" y="350"/><use xlink:href="#L1_44" x="350" y="350"/></pattern><rect x="0" y="0" width="100%" height="100%" fill="url(#pattern_L1_44)"/></g><g fi:class="KUsePattern"><pattern id="pattern_L1_45" width="350" height="350" patternUnits="userSpaceOnUse"><use xlink:href="#L1_45" x="-350" y="-350"/><use xlink:href="#L1_45" x="0" y="-350"/><use xlink:href="#L1_45" x="350" y="-350"/><use xlink:href="#L1_45" x="-350" y="0"/><use xlink:href="#L1_45" x="0" y="0"/><use xlink:href="#L1_45" x="350" y="0"/><use xlink:href="#L1_45" x="-350" y="350"/><use xlink:href="#L1_45" x="0" y="350"/><use xlink:href="#L1_45" x="350" y="350"/></pattern><rect x="0" y="0" width="100%" height="100%" fill="url(#pattern_L1_45)"/></g><g fi:class="KUsePattern"><pattern id="pattern_L1_46" width="350" height="350" patternUnits="userSpaceOnUse"><use xlink:href="#L1_46" x="-350" y="-350"/><use xlink:href="#L1_46" x="0" y="-350"/><use xlink:href="#L1_46" x="350" y="-350"/><use xlink:href="#L1_46" x="-350" y="0"/><use xlink:href="#L1_46" x="0" y="0"/><use xlink:href="#L1_46" x="350" y="0"/><use xlink:href="#L1_46" x="-350" y="350"/><use xlink:href="#L1_46" x="0" y="350"/><use xlink:href="#L1_46" x="350" y="350"/></pattern><rect x="0" y="0" width="100%" height="100%" fill="url(#pattern_L1_46)"/></g><g fi:class="KUsePattern"><pattern id="pattern_L1_47" width="350" height="350" patternUnits="userSpaceOnUse"><use xlink:href="#L1_47" x="-350" y="-350"/><use xlink:href="#L1_47" x="0" y="-350"/><use xlink:href="#L1_47" x="350" y="-350"/><use xlink:href="#L1_47" x="-350" y="0"/><use xlink:href="#L1_47" x="0" y="0"/><use xlink:href="#L1_47" x="350" y="0"/><use xlink:href="#L1_47" x="-350" y="350"/><use xlink:href="#L1_47" x="0" y="350"/><use xlink:href="#L1_47" x="350" y="350"/></pattern><rect x="0" y="0" width="100%" height="100%" fill="url(#pattern_L1_47)"/></g><g fi:class="KUsePattern"><pattern id="pattern_L1_48" width="350" height="350" patternUnits="userSpaceOnUse"><use xlink:href="#L1_48" x="-350" y="-350"/><use xlink:href="#L1_48" x="0" y="-350"/><use xlink:href="#L1_48" x="350" y="-350"/><use xlink:href="#L1_48" x="-350" y="0"/><use xlink:href="#L1_48" x="0" y="0"/><use xlink:href="#L1_48" x="350" y="0"/><use xlink:href="#L1_48" x="-350" y="350"/><use xlink:href="#L1_48" x="0" y="350"/><use xlink:href="#L1_48" x="350" y="350"/></pattern><rect x="0" y="0" width="100%" height="100%" fill="url(#pattern_L1_48)"/></g></svg>