<svg id="visual" viewBox="0 0 1920 1080" width="1920" height="1080" xmlns="http://www.w3.org/2000/svg" xmlns:xlink="http://www.w3.org/1999/xlink" version="1.1"><rect x="0" y="0" width="1920" height="1080" fill="#002233"></rect><path d="M0 608L45.7 579C91.3 550 182.7 492 274.2 501.7C365.7 511.3 457.3 588.7 548.8 622.8C640.3 657 731.7 648 823 599.5C914.3 551 1005.7 463 1097 439.3C1188.3 415.7 1279.7 456.3 1371.2 511.7C1462.7 567 1554.3 637 1645.8 658.2C1737.3 679.3 1828.7 651.7 1874.3 637.8L1920 624L1920 1081L1874.3 1081C1828.7 1081 1737.3 1081 1645.8 1081C1554.3 1081 1462.7 1081 1371.2 1081C1279.7 1081 1188.3 1081 1097 1081C1005.7 1081 914.3 1081 823 1081C731.7 1081 640.3 1081 548.8 1081C457.3 1081 365.7 1081 274.2 1081C182.7 1081 91.3 1081 45.7 1081L0 1081Z" fill="#0066FF" stroke-linecap="round" stroke-linejoin="miter"></path></svg>