<svg width="864" height="864" viewBox="0 0 864 864" fill="none" xmlns="http://www.w3.org/2000/svg">
<path d="M864 864C760.2 834 656.4 804 545.6 768.7C434.9 733.3 317.2 692.7 253.1 610.9C189 529.2 178.5 406.4 145.2 297.7C112 189.1 56 94.5 0 0H864V864Z" fill="#003053"/>
<path d="M864 648C786.1 625.5 708.3 603 625.2 576.5C542.1 550 453.9 519.5 405.8 458.2C357.7 396.9 349.8 304.8 324.9 223.3C300 141.8 258 70.9 216 0H864V648Z" fill="#004B99"/>
<path d="M864 432C812.1 417 760.2 402 704.8 384.3C649.4 366.7 590.6 346.3 558.5 305.5C526.5 264.6 521.2 203.2 504.6 148.9C488 94.5 460 47.3 432 0H864V432Z" fill="#005FDF"/>
<path d="M864 216C838 208.5 812.1 201 784.4 192.2C756.7 183.3 727.3 173.2 711.3 152.7C695.2 132.3 692.6 101.6 684.3 74.4C676 47.3 662 23.6 648 0H864V216Z" fill="#0066FF"/>
</svg>
