<svg width="864" height="864" viewBox="0 0 864 864" fill="none" xmlns="http://www.w3.org/2000/svg">
<path d="M0 0C106.3 35.3 212.6 70.6 310.4 114.7C408.1 158.9 497.4 212 583.4 280.6C669.3 349.3 752 433.5 798.2 533.4C844.5 633.2 854.2 748.6 864 864H0V0Z" fill="#003053"/>
<path d="M0 216C79.7 242.5 159.4 268.9 232.8 302.1C306.1 335.2 373 375 437.5 426.5C502 478 564 541.2 598.7 616C633.3 690.9 640.7 777.4 648 864H0V216Z" fill="#004B99"/>
<path d="M0 432C53.1 449.6 106.3 467.3 155.2 489.4C204.1 511.5 248.7 538 291.7 572.3C334.7 606.6 376 648.8 399.1 698.7C422.2 748.6 427.1 806.3 432 864H0V432Z" fill="#005FDF"/>
<path d="M0 648C26.6 656.8 53.1 665.6 77.6 676.7C102 687.7 124.3 701 145.8 718.2C167.3 735.3 188 756.4 199.6 781.3C211.1 806.3 213.6 835.1 216 864H0V648Z" fill="#0066FF"/>
</svg>
