<svg id="visual" viewBox="0 0 1920 1080" width="1920" height="1080" xmlns="http://www.w3.org/2000/svg" xmlns:xlink="http://www.w3.org/1999/xlink" version="1.1"><rect x="0" y="0" width="1920" height="1080" fill="#f3f3f3"></rect><defs><linearGradient id="grad1_0" x1="43.8%" y1="0%" x2="100%" y2="100%"><stop offset="14.444444444444446%" stop-color="#0066ff" stop-opacity="1"></stop><stop offset="85.55555555555554%" stop-color="#0066ff" stop-opacity="1"></stop></linearGradient></defs><defs><linearGradient id="grad1_1" x1="43.8%" y1="0%" x2="100%" y2="100%"><stop offset="14.444444444444446%" stop-color="#0066ff" stop-opacity="1"></stop><stop offset="85.55555555555554%" stop-color="#8792fd" stop-opacity="1"></stop></linearGradient></defs><defs><linearGradient id="grad1_2" x1="43.8%" y1="0%" x2="100%" y2="100%"><stop offset="14.444444444444446%" stop-color="#c2c1f9" stop-opacity="1"></stop><stop offset="85.55555555555554%" stop-color="#8792fd" stop-opacity="1"></stop></linearGradient></defs><defs><linearGradient id="grad1_3" x1="43.8%" y1="0%" x2="100%" y2="100%"><stop offset="14.444444444444446%" stop-color="#c2c1f9" stop-opacity="1"></stop><stop offset="85.55555555555554%" stop-color="#f3f3f3" stop-opacity="1"></stop></linearGradient></defs><defs><linearGradient id="grad2_0" x1="0%" y1="0%" x2="56.3%" y2="100%"><stop offset="14.444444444444446%" stop-color="#0066ff" stop-opacity="1"></stop><stop offset="85.55555555555554%" stop-color="#0066ff" stop-opacity="1"></stop></linearGradient></defs><defs><linearGradient id="grad2_1" x1="0%" y1="0%" x2="56.3%" y2="100%"><stop offset="14.444444444444446%" stop-color="#8792fd" stop-opacity="1"></stop><stop offset="85.55555555555554%" stop-color="#0066ff" stop-opacity="1"></stop></linearGradient></defs><defs><linearGradient id="grad2_2" x1="0%" y1="0%" x2="56.3%" y2="100%"><stop offset="14.444444444444446%" stop-color="#8792fd" stop-opacity="1"></stop><stop offset="85.55555555555554%" stop-color="#c2c1f9" stop-opacity="1"></stop></linearGradient></defs><defs><linearGradient id="grad2_3" x1="0%" y1="0%" x2="56.3%" y2="100%"><stop offset="14.444444444444446%" stop-color="#f3f3f3" stop-opacity="1"></stop><stop offset="85.55555555555554%" stop-color="#c2c1f9" stop-opacity="1"></stop></linearGradient></defs><g transform="translate(1920, 0)"><path d="M0 864C-103.8 834 -207.6 804 -318.4 768.7C-429.1 733.3 -546.8 692.7 -610.9 610.9C-675 529.2 -685.5 406.4 -718.8 297.7C-752 189.1 -808 94.5 -864 0L0 0Z" fill="#dbdaf6"></path><path d="M0 648C-77.9 625.5 -155.7 603 -238.8 576.5C-321.9 550 -410.1 519.5 -458.2 458.2C-506.3 396.9 -514.2 304.8 -539.1 223.3C-564 141.8 -606 70.9 -648 0L0 0Z" fill="#a6a9fb"></path><path d="M0 432C-51.9 417 -103.8 402 -159.2 384.3C-214.6 366.7 -273.4 346.3 -305.5 305.5C-337.5 264.6 -342.8 203.2 -359.4 148.9C-376 94.5 -404 47.3 -432 0L0 0Z" fill="#5f7bfe"></path><path d="M0 216C-26 208.5 -51.9 201 -79.6 192.2C-107.3 183.3 -136.7 173.2 -152.7 152.7C-168.8 132.3 -171.4 101.6 -179.7 74.4C-188 47.3 -202 23.6 -216 0L0 0Z" fill="#0066ff"></path></g><g transform="translate(0, 1080)"><path d="M0 -864C106.3 -828.7 212.6 -793.4 310.4 -749.3C408.1 -705.1 497.4 -652 583.4 -583.4C669.3 -514.7 752 -430.5 798.2 -330.6C844.5 -230.8 854.2 -115.4 864 0L0 0Z" fill="#dbdaf6"></path><path d="M0 -648C79.7 -621.5 159.4 -595.1 232.8 -561.9C306.1 -528.8 373 -489 437.5 -437.5C502 -386 564 -322.8 598.7 -248C633.3 -173.1 640.7 -86.6 648 0L0 0Z" fill="#a6a9fb"></path><path d="M0 -432C53.1 -414.4 106.3 -396.7 155.2 -374.6C204.1 -352.5 248.7 -326 291.7 -291.7C334.7 -257.4 376 -215.2 399.1 -165.3C422.2 -115.4 427.1 -57.7 432 0L0 0Z" fill="#5f7bfe"></path><path d="M0 -216C26.6 -207.2 53.1 -198.4 77.6 -187.3C102 -176.3 124.3 -163 145.8 -145.8C167.3 -128.7 188 -107.6 199.6 -82.7C211.1 -57.7 213.6 -28.9 216 0L0 0Z" fill="#0066ff"></path></g></svg>